<svg width="160" height="69" viewBox="0 0 160 69" fill="none" xmlns="http://www.w3.org/2000/svg">
<path fill-rule="evenodd" clip-rule="evenodd" d="M0.703094 49.4619C0.751879 50.5015 2.55695 51.7569 4.28596 52.1558C6.15138 52.585 7.36178 52.013 7.34639 50.9968L7.34996 50.9874C7.34282 51.0062 7.35768 51.0226 7.35411 51.032L7.40764 50.8911C7.46152 50.813 7.52149 50.7372 7.58818 50.6619C7.71453 50.5441 7.84148 50.4264 7.98561 50.3153C8.48924 49.9907 9.04473 49.6965 9.63355 49.4258C11.8754 48.4292 14.4087 47.6604 16.9434 46.8911C17.283 46.788 17.6227 46.6849 17.9617 46.5813C18.4134 46.4572 18.8645 46.3328 19.3154 46.2086C21.2898 45.6643 23.2606 45.121 25.263 44.6043C26.7843 44.2149 28.3057 43.8255 29.8306 43.4267C30.7202 43.1986 31.6362 42.9997 32.5522 42.8007C33.0103 42.7012 33.4684 42.6018 33.9232 42.4986C36.7432 41.861 39.5895 41.2655 42.4728 40.6841L42.9586 40.5816C43.8544 40.3921 44.7555 40.2015 45.6751 40.0412C46.5654 39.8912 47.4548 39.7435 48.3441 39.5958C49.2364 39.4476 50.1287 39.2994 51.0219 39.1489C52.1069 38.9734 53.1949 38.7898 54.2657 38.6075C55.1392 38.4904 56.0124 38.3743 56.8849 38.2583C58.7415 38.0114 60.5948 37.765 62.4414 37.5111C64.1347 37.2868 65.859 37.1124 67.5852 36.9378L67.5998 36.9363C68.1143 36.8842 68.629 36.8322 69.1431 36.7788C69.6661 36.7265 70.1876 36.6725 70.709 36.6185L70.7202 36.6173C72.4278 36.4403 74.1338 36.2634 75.89 36.1497C78.7704 35.9649 81.6324 35.7731 84.4944 35.5813C86.202 35.532 87.9105 35.4804 89.6189 35.4287C91.3305 35.3769 93.0421 35.3252 94.7527 35.2758C95.7732 35.2444 96.8409 35.2649 97.9048 35.2853C98.4234 35.2953 98.9411 35.3052 99.4521 35.3091C99.7351 35.3115 100.018 35.3131 100.3 35.3144C100.605 35.3158 100.909 35.3167 101.214 35.3177L101.216 35.3176C102.557 35.3219 103.896 35.3261 105.262 35.3666L105.225 35.3526C109.985 35.5055 114.808 35.8225 119.778 36.3671C123.379 36.7891 127.029 37.359 130.703 38.0344C134.229 38.7077 137.728 39.5101 141.278 40.343C142.908 40.7245 144.52 41.1499 146.146 41.5789L146.788 41.748L146.987 41.8076L146.991 41.8088C148.497 42.2575 149.987 42.7015 151.485 43.1777C150.39 43.4488 149.231 43.674 148.078 43.8978C147.805 43.9506 147.533 44.0034 147.263 44.0567C145.828 44.3286 144.412 44.6076 143.008 44.9123C142.804 44.9555 142.6 44.9985 142.396 45.0415L141.83 45.1605C139.529 45.644 137.223 46.1285 135.032 46.719L132.349 47.4409C132.212 47.4779 132.074 47.5131 131.935 47.5484C131.569 47.6413 131.203 47.7344 130.879 47.8607C130.664 47.9368 130.449 48.0126 130.235 48.0882C129.755 48.2572 129.276 48.4254 128.797 48.5936C128.101 48.8379 127.405 49.0821 126.708 49.3288C126.414 49.4348 126.146 49.5685 125.877 49.7022C125.787 49.7468 125.698 49.7914 125.607 49.8349C125.198 50.0231 124.79 50.2089 124.381 50.3948L124.374 50.3982C123.967 50.5832 123.561 50.7681 123.153 50.9555C122.174 51.3983 121.267 51.8965 120.367 52.3906L120.182 52.4922C117.149 54.1347 114.209 55.8661 111.709 57.8293C109.141 59.8631 107.43 62.3086 105.86 64.8291C105.351 65.6677 106.175 66.9479 107.953 67.7739C109.627 68.539 111.657 68.5901 112.17 67.7421C112.636 67.0163 113.101 66.2904 113.586 65.5716C114.139 64.7822 114.748 64.0139 115.372 63.262C116.571 61.9977 117.958 60.8481 119.508 59.771C119.501 59.7753 119.493 59.7797 119.486 59.7842C119.481 59.7873 119.476 59.7904 119.471 59.7935C121.873 58.1734 124.528 56.7255 127.194 55.2715L127.865 54.9058C127.815 54.9246 127.77 54.9452 127.726 54.9658C127.681 54.9864 127.636 55.007 127.586 55.0259C128.263 54.7189 128.94 54.4095 129.617 54.1002C130.295 53.7904 130.973 53.4806 131.65 53.1731C132.072 52.984 132.55 52.8292 133.024 52.6752C133.295 52.5877 133.564 52.5004 133.821 52.4073C134.525 52.1692 135.209 51.9242 135.894 51.6791C136.585 51.4925 137.276 51.3082 137.966 51.1239L137.975 51.1215C138.669 50.9362 139.363 50.7509 140.058 50.5632C140.988 50.3188 141.956 50.1095 142.925 49.8999C143.35 49.808 143.776 49.716 144.198 49.6209C146.78 49.0335 149.458 48.5135 152.117 47.9972L152.119 47.9968L152.286 47.9643C152.501 47.9236 152.717 47.8833 152.933 47.8429C154.599 47.5319 156.29 47.2161 157.647 46.6472C158.646 46.2421 159.534 45.5156 159.314 44.5396C159.307 44.5109 159.301 44.4821 159.294 44.4533C159.524 44.123 159.527 43.6978 159.28 43.2371C158.983 42.6837 158.389 42.1893 157.612 41.7328C157.252 41.5189 156.867 41.3231 156.487 41.1296C156.285 41.0265 156.083 40.924 155.888 40.8199C155.377 40.5507 154.882 40.298 154.368 40.0382C153.752 39.7218 153.136 39.4073 152.522 39.0937C151.777 38.7136 151.035 38.3347 150.299 37.9551L149.955 37.7767C145.251 35.3395 140.566 32.9122 136.106 30.2631C136.186 30.3153 136.268 30.3633 136.349 30.4127C136.388 30.4364 136.427 30.4605 136.466 30.4856C133.333 28.6078 130.333 26.6617 127.464 24.6474C124.283 22.3965 121.201 20.1079 118.32 17.7345C116.538 16.2514 114.889 14.7541 113.319 13.212C112.586 12.4714 111.898 11.7261 111.253 10.9759C110.246 9.72995 109.332 8.48179 108.526 7.23715C108.527 7.23926 108.528 7.24138 108.529 7.2435C108.522 7.23215 108.515 7.22102 108.508 7.20966C108.457 7.13106 108.407 7.05244 108.357 6.97384C108.376 7.00479 108.398 7.0367 108.42 7.06931C108.422 7.07224 108.424 7.0752 108.426 7.07816C107.584 5.72383 106.78 4.36524 105.977 3.0067C105.328 1.87873 103.484 0.834124 101.736 0.707515C100.607 0.622277 99.7761 0.973134 99.5548 1.55548C99.4662 1.84426 99.5069 2.18218 99.706 2.54801C100.396 3.73457 101.09 4.91176 101.824 6.09357C103.529 8.83708 105.498 11.552 108.235 14.2471C110.987 16.9586 114.091 19.5781 117.43 22.1363C120.965 24.8443 124.732 27.5004 128.651 30.0319C131.921 32.1404 135.362 34.1406 138.891 36.0658C138.554 35.9888 138.217 35.9117 137.879 35.8336C137.723 35.7976 137.568 35.7615 137.412 35.725C133.607 34.8385 129.812 34.0951 126.058 33.4644C121.055 32.6172 116.17 32.0726 111.367 31.6992C107.86 31.4201 104.358 31.2397 101.008 31.2139C100.36 31.2092 99.7111 31.204 99.0612 31.1987C97.5116 31.1862 95.9577 31.1736 94.4112 31.1692C94.174 31.1675 93.9362 31.165 93.6982 31.1626L93.6931 31.1625L93.6907 31.1625C92.8316 31.1536 91.9708 31.1446 91.1352 31.1715C90.0801 31.1999 89.0287 31.2325 87.9773 31.265L87.9687 31.2653C86.9169 31.2978 85.8652 31.3303 84.8097 31.3588C84.671 31.3624 84.5319 31.3658 84.3926 31.369C84.206 31.3734 84.0191 31.3774 83.832 31.3815C82.8259 31.4034 81.8164 31.4254 80.8513 31.4887C78.5257 31.6481 76.1933 31.7998 73.8644 31.9514C72.7607 32.0232 71.6578 32.0949 70.5568 32.1674C69.6722 32.2301 68.8076 32.3288 67.944 32.4274C67.6204 32.4643 67.2969 32.5012 66.9725 32.5363C65.9718 32.6398 64.9665 32.7415 63.9611 32.8433C62.9558 32.945 61.9504 33.0467 60.9498 33.1503C58.8182 33.374 56.7446 33.6615 54.6745 33.9485C53.7738 34.0734 52.8737 34.1982 51.9698 34.3176C49.6909 34.6186 47.4817 34.9964 45.2771 35.3734C44.5979 35.4895 43.9192 35.6056 43.239 35.7193C37.7422 36.6371 32.5259 37.816 27.3116 38.9945L26.4542 39.1882C24.6003 39.6033 22.8143 40.0723 21.0288 40.5411C20.3455 40.7206 19.6623 40.9 18.9754 41.0763C16.4203 41.7394 13.932 42.4494 11.4735 43.1921C11.231 43.267 10.9883 43.3416 10.7456 43.4162C9.239 43.8791 7.73436 44.3415 6.31237 44.8751C4.83693 45.4217 3.41753 46.0433 2.2793 46.8147C1.5679 47.2968 1.04467 47.8396 0.794894 48.4971L0.781433 48.582C0.739535 48.8447 0.692752 49.1382 0.703094 49.4619ZM108.426 7.07816C108.461 7.12974 108.497 7.18302 108.526 7.23715C108.52 7.22798 108.514 7.21884 108.508 7.20966C108.481 7.16593 108.454 7.12193 108.426 7.07816ZM7.70278 50.5397C7.66258 50.5804 7.62434 50.6212 7.58818 50.6619C7.61343 50.6374 7.63555 50.613 7.6575 50.5889L7.67404 50.5706C7.68343 50.5603 7.69295 50.5501 7.70278 50.5397ZM119.395 59.8463C119.408 59.8369 119.421 59.8274 119.434 59.818L119.282 59.9215C119.322 59.8992 119.359 59.8728 119.395 59.8463ZM105.306 35.3618C105.297 35.3583 105.291 35.3589 105.286 35.3595C105.28 35.3601 105.275 35.3607 105.266 35.3572C105.284 35.3642 105.306 35.3618 105.306 35.3618Z" fill="#ECC19A"/>
</svg>
