<?xml version="1.0" standalone="no"?>
<!DOCTYPE svg PUBLIC "-//W3C//DTD SVG 20010904//EN"
 "http://www.w3.org/TR/2001/REC-SVG-20010904/DTD/svg10.dtd">
<svg version="1.0" xmlns="http://www.w3.org/2000/svg"
 width="500.000000pt" height="500.000000pt" viewBox="0 0 500.000000 500.000000"
 preserveAspectRatio="xMidYMid meet">
<metadata>
Created by potrace 1.14, written by Peter Selinger 2001-2017
</metadata>
<g transform="translate(0.000000,500.000000) scale(0.100000,-0.100000)"
fill="#000000" stroke="none">
<path d="M2620 4198 c-13 -5 -33 -7 -44 -6 -12 2 -20 -2 -19 -9 2 -7 -8 -10
-25 -8 -15 1 -33 -2 -39 -7 -9 -7 -18 -7 -27 1 -11 9 -19 9 -35 -1 -12 -7 -21
-16 -21 -19 0 -4 -10 -5 -21 -2 -19 5 -20 4 -10 -16 8 -14 8 -21 1 -21 -5 0
-10 6 -10 14 0 7 -7 19 -15 26 -11 9 -15 9 -15 1 0 -7 -5 -9 -12 -5 -6 4 -16
1 -22 -7 -14 -17 -45 -37 -69 -46 -11 -3 -16 -12 -12 -21 5 -13 3 -13 -11 -2
-13 12 -17 11 -25 -1 -5 -8 -9 -20 -9 -26 0 -7 -5 -13 -11 -13 -6 0 -8 7 -5
16 3 9 1 14 -5 12 -6 -2 -9 -7 -7 -12 2 -4 -12 -14 -30 -22 -21 -9 -37 -24
-43 -44 -6 -17 -20 -35 -30 -41 -10 -5 -19 -17 -19 -26 0 -9 -6 -24 -14 -32
-18 -21 -42 -109 -51 -186 -4 -33 -10 -64 -14 -70 -15 -19 -33 -104 -26 -116
5 -8 4 -10 -3 -5 -8 5 -12 -2 -12 -18 0 -14 5 -26 10 -26 6 0 10 -4 10 -10 0
-5 -6 -7 -14 -4 -20 8 -11 -129 14 -211 35 -115 40 -148 29 -195 -10 -41 -5
-180 7 -222 3 -10 1 -18 -5 -18 -5 0 -12 17 -14 38 -3 36 -4 35 -5 -8 -2 -43
8 -73 22 -71 8 1 8 -1 0 -22 -11 -31 27 -71 70 -75 43 -4 43 -12 -1 143 -23
79 -25 99 -18 180 3 49 10 135 14 190 5 70 13 113 28 145 12 25 28 71 37 103
15 60 41 100 60 94 6 -2 17 3 25 10 17 18 24 11 26 -29 4 -68 16 -98 40 -98
13 0 26 -6 28 -12 4 -9 8 -10 14 -2 6 7 15 7 30 -1 13 -7 20 -16 15 -21 -4 -4
2 -2 13 6 11 8 23 20 28 25 4 6 11 4 17 -5 5 -8 10 -10 10 -3 0 7 14 10 38 7
140 -16 211 -16 225 -2 21 21 160 24 189 3 13 -8 36 -15 54 -15 20 0 31 -5 31
-14 0 -8 -6 -12 -15 -8 -10 3 -13 1 -8 -6 4 -7 14 -12 22 -12 9 0 14 -6 12
-12 -3 -9 -36 -14 -108 -16 -57 -2 -109 -7 -115 -12 -6 -5 -24 -11 -40 -14
-15 -3 -32 -11 -36 -17 -4 -7 -17 -9 -32 -5 -18 4 -27 1 -31 -10 -5 -14 -9
-14 -23 -3 -12 10 -14 10 -9 2 10 -17 1 -16 -37 4 -18 9 -39 18 -47 19 -8 1
-33 9 -55 17 -31 12 -43 12 -54 4 -12 -9 -13 -9 -7 1 6 10 1 11 -20 6 -15 -4
-25 -3 -21 2 7 12 -42 15 -73 4 -14 -4 -37 -11 -52 -14 -16 -4 -28 -13 -28
-21 0 -8 -5 -14 -12 -12 -6 1 -14 -7 -16 -18 -2 -11 -9 -24 -16 -28 -7 -5 -3
-7 9 -5 28 5 57 -24 48 -48 -3 -10 -9 -21 -13 -24 -13 -11 -50 -69 -50 -79 0
-7 14 -25 30 -41 17 -17 25 -30 19 -30 -7 0 -10 -3 -6 -6 3 -4 27 -7 52 -8 27
-1 50 -7 55 -16 12 -19 77 -16 101 5 10 10 33 18 51 19 24 0 44 12 75 42 23
23 54 49 69 59 40 26 44 16 49 -122 0 -23 -3 -39 -7 -37 -14 9 -8 -13 7 -26 8
-7 12 -16 10 -21 -8 -12 28 -28 76 -34 46 -6 59 -12 59 -25 0 -10 -43 -4 -84
12 -23 9 -34 8 -62 -7 -18 -10 -42 -15 -54 -12 -11 3 -26 0 -33 -7 -6 -7 -36
-12 -64 -12 -44 0 -53 3 -53 18 0 10 16 28 35 40 33 23 52 59 39 79 -3 6 -13
8 -21 5 -8 -3 -11 -1 -8 4 4 6 -5 10 -20 10 -16 0 -24 -4 -20 -10 4 -6 2 -16
-3 -23 -9 -11 -30 -70 -33 -92 -1 -5 -13 -20 -27 -31 -22 -19 -27 -20 -51 -8
-14 8 -32 14 -38 14 -7 0 -13 6 -13 14 0 8 -8 13 -17 12 -10 0 -18 6 -18 14 0
21 -30 41 -49 34 -15 -6 -15 -7 0 -19 14 -10 15 -18 7 -41 -5 -16 -8 -54 -6
-84 5 -78 5 -80 16 -73 6 4 7 -5 3 -23 -6 -26 -5 -27 7 -11 8 9 19 17 25 17
13 0 23 -26 17 -47 -3 -10 1 -5 9 12 13 28 14 25 21 -67 6 -74 12 -101 26
-117 11 -11 19 -23 19 -26 0 -10 28 -35 39 -35 6 0 11 -4 11 -10 0 -5 7 -10
15 -10 8 0 15 -4 15 -10 0 -5 7 -10 16 -10 13 0 14 -3 5 -14 -9 -11 -9 -15 0
-18 9 -3 5 -12 -10 -27 -12 -12 -20 -29 -17 -37 3 -8 1 -14 -4 -14 -6 0 -10 7
-10 15 0 8 -8 15 -17 15 -14 0 -13 -4 6 -24 l23 -25 -20 -26 c-12 -15 -18 -33
-15 -46 5 -19 4 -20 -16 -10 -12 7 -21 21 -21 36 0 30 -17 41 -25 16 -9 -31
-13 -140 -5 -143 5 -2 14 -57 21 -123 7 -70 18 -127 25 -136 8 -8 14 -21 14
-27 0 -6 16 -23 35 -38 23 -17 48 -53 72 -102 l35 -74 87 86 c64 64 91 98 104
134 12 35 35 67 79 109 57 54 236 243 362 380 36 39 46 57 41 70 -7 16 -9 15
-15 -7 l-8 -25 -2 25 c-1 14 -1 47 0 74 l2 50 -34 -25 c-55 -42 -63 -45 -41
-13 11 16 32 52 46 80 23 46 24 51 9 62 -11 7 -13 14 -7 19 6 4 11 19 11 33 4
59 10 85 23 101 20 24 38 13 46 -28 8 -44 15 -38 23 23 7 49 7 49 43 46 23 -2
43 3 58 15 49 40 70 304 31 402 -10 27 -15 51 -10 53 15 5 33 202 28 293 -6
88 -28 164 -62 210 -18 23 -22 40 -19 76 2 33 -1 50 -12 59 -8 7 -15 19 -15
28 0 21 -41 105 -55 114 -7 4 -33 25 -59 46 -62 51 -213 131 -255 134 -18 1
-35 6 -37 10 -3 5 -16 5 -29 2 -17 -4 -38 2 -62 16 -49 29 -93 39 -123 28z
m120 -629 c0 -14 -16 -11 -29 5 -10 12 -8 13 8 9 12 -3 21 -9 21 -14z m-86 -4
c17 -17 30 -20 21 -5 -3 6 1 10 10 10 8 0 18 -7 22 -16 3 -8 12 -13 19 -10 8
3 14 0 15 -7 0 -7 4 -2 9 11 7 16 17 22 37 21 15 0 22 -3 16 -6 -18 -7 -16
-23 2 -23 8 0 15 9 15 20 0 21 24 28 35 10 3 -5 -1 -10 -10 -10 -9 0 -13 -4
-10 -10 3 -5 15 -10 26 -10 13 0 18 4 13 12 -4 6 -3 8 4 4 8 -4 8 -15 0 -36
-12 -36 -51 -41 -68 -10 -10 19 -40 28 -40 12 0 -13 -103 -8 -107 6 -3 6 -16
12 -29 12 -26 0 -27 1 -18 24 8 20 18 20 38 1z m-19 -45 c-3 -5 -12 -7 -20 -3
-21 7 -19 13 6 13 11 0 18 -4 14 -10z m165 -14 c0 -3 -4 -8 -10 -11 -5 -3 -10
-1 -10 4 0 6 5 11 10 11 6 0 10 -2 10 -4z m-137 -13 c-7 -2 -19 -2 -25 0 -7 3
-2 5 12 5 14 0 19 -2 13 -5z m328 -150 c13 -17 13 -17 -6 -3 -11 8 -22 16 -24
17 -2 2 0 3 6 3 6 0 17 -8 24 -17z m48 -22 c11 -20 51 -35 51 -19 0 5 10 2 21
-6 12 -8 28 -12 35 -9 10 4 12 0 8 -11 -3 -9 -2 -16 4 -16 17 0 50 -92 65
-185 15 -89 9 -201 -11 -229 -5 -6 -9 -22 -10 -35 -1 -25 -16 -46 -32 -46 -5
0 -16 -9 -25 -20 -15 -19 -16 -18 -11 19 2 21 10 43 18 47 7 5 9 9 4 9 -5 0
-4 6 2 13 11 13 9 248 -3 282 -11 34 -23 50 -33 48 -6 -2 -14 6 -17 17 -4 11
-11 20 -16 20 -5 0 -9 9 -9 21 0 11 5 17 10 14 18 -11 10 4 -21 40 -17 19 -37
35 -45 35 -8 0 -14 7 -14 15 0 21 17 19 29 -4z m-110 -147 c10 -9 -35 -3 -49
6 -11 8 -7 9 15 4 17 -4 32 -8 34 -10z m-345 -20 c9 -3 16 -14 16 -24 0 -28
-37 -21 -43 7 -4 24 1 27 27 17z m243 -29 c12 -27 4 -30 -47 -16 l-24 7 24 17
c31 22 33 22 47 -8z m-417 -17 c0 -5 -6 -8 -14 -8 -8 0 -22 -3 -31 -6 -13 -6
-14 -3 -4 19 10 22 14 24 30 14 11 -7 19 -15 19 -19z m537 15 c4 -10 -26 -27
-34 -20 -2 2 -1 12 3 21 7 18 25 17 31 -1z m-677 -25 c0 -12 -28 -9 -36 3 -3
6 0 15 7 20 13 7 28 -5 29 -23z m470 -14 c0 -2 -7 -4 -15 -4 -8 0 -15 4 -15
10 0 5 7 7 15 4 8 -4 15 -8 15 -10z m190 -4 c0 -5 -9 -10 -21 -10 -11 0 -17 5
-14 10 3 6 13 10 21 10 8 0 14 -4 14 -10z m-580 -4 c0 -2 -7 -6 -15 -10 -8 -3
-15 -1 -15 4 0 6 7 10 15 10 8 0 15 -2 15 -4z m77 -7 c-14 -8 -22 -8 -30 0 -8
8 -3 11 19 11 25 -1 27 -2 11 -11z m844 -26 c-10 -17 -10 -16 -11 3 0 23 13
41 18 25 2 -6 -1 -18 -7 -28z m-401 -20 c49 -5 64 -2 80 12 22 20 74 15 119
-13 24 -15 27 -21 19 -42 -5 -13 -14 -28 -21 -33 -9 -7 -9 -10 1 -14 9 -3 2
-20 -23 -54 -19 -27 -35 -54 -35 -60 0 -5 -4 -7 -10 -4 -5 3 -10 -1 -10 -9 0
-9 -7 -16 -15 -16 -8 0 -15 -5 -15 -11 0 -5 -5 -7 -11 -3 -6 3 -15 1 -19 -6
-5 -8 -15 -10 -26 -5 -11 4 -28 9 -38 10 -22 2 -48 34 -39 48 3 6 1 7 -5 3
-20 -12 -13 -38 23 -96 22 -36 30 -56 22 -59 -7 -2 -15 -8 -18 -13 -7 -10 -49
29 -49 44 0 5 -6 6 -12 2 -7 -4 -10 -4 -6 0 3 4 0 19 -7 32 -8 16 -10 36 -6
52 7 26 5 40 -20 129 -6 23 -9 53 -5 67 l6 24 58 -31 c55 -29 62 -30 98 -19
44 13 82 37 73 46 -3 4 -18 2 -33 -4 -15 -5 -49 -10 -75 -10 -40 0 -56 6 -95
35 -25 20 -46 38 -46 40 0 3 18 -5 40 -16 22 -12 67 -23 100 -26z m-505 -3
c-3 -5 -12 -10 -18 -10 -7 0 -6 4 3 10 19 12 23 12 15 0z m-370 -32 c-8 -35
-34 -90 -35 -72 0 15 31 104 37 104 2 0 1 -15 -2 -32z m1322 -80 c-3 -8 -6 -5
-6 6 -1 11 2 17 5 13 3 -3 4 -12 1 -19z m-60 -20 c-3 -8 -6 -5 -6 6 -1 11 2
17 5 13 3 -3 4 -12 1 -19z m-97 -178 c0 -5 -2 -10 -4 -10 -3 0 -8 5 -11 10 -3
6 -1 10 4 10 6 0 11 -4 11 -10z m-615 -60 c8 -13 -5 -13 -25 0 -13 8 -13 10 2
10 9 0 20 -4 23 -10z m76 -5 c-25 -8 -49 -11 -55 -7 -6 4 5 10 24 13 62 11 76
8 31 -6z m74 -106 c-14 -22 -63 -35 -122 -33 -69 3 -124 23 -65 24 17 0 32 4
32 8 0 5 36 9 80 10 49 1 78 -3 75 -9z m-235 -59 l35 -19 -35 -1 c-34 0 -60
14 -60 32 0 13 23 8 60 -12z"/>
<path d="M2625 3560 c-3 -5 -1 -10 4 -10 6 0 11 5 11 10 0 6 -2 10 -4 10 -3 0
-8 -4 -11 -10z"/>
<path d="M2990 2890 c0 -5 5 -10 11 -10 5 0 7 5 4 10 -3 6 -8 10 -11 10 -2 0
-4 -4 -4 -10z"/>
<path d="M2125 2919 c-11 -17 1 -21 15 -4 8 9 8 15 2 15 -6 0 -14 -5 -17 -11z"/>
<path d="M3164 2584 c-4 -10 -9 -22 -11 -26 -2 -5 0 -8 5 -8 10 0 24 41 17 48
-3 3 -8 -4 -11 -14z"/>
<path d="M3135 2510 c-3 -5 -1 -10 4 -10 6 0 11 5 11 10 0 6 -2 10 -4 10 -3 0
-8 -4 -11 -10z"/>
<path d="M2041 1878 c-12 -21 -16 -34 -9 -37 5 -2 14 3 19 10 5 8 9 9 9 3 0
-6 -7 -17 -16 -24 -8 -8 -20 -22 -26 -33 -9 -18 -8 -18 10 -6 36 26 102 89
102 98 0 11 -25 21 -50 21 -10 0 -27 -15 -39 -32z"/>
<path d="M2840 1889 c0 -5 5 -7 11 -3 6 3 24 -3 40 -15 17 -13 35 -20 42 -18
7 2 -7 14 -30 25 -47 24 -63 27 -63 11z"/>
<path d="M2122 1809 c-9 -36 -6 -59 9 -59 5 0 9 -5 9 -11 0 -5 -4 -7 -10 -4
-5 3 -10 1 -10 -4 0 -6 8 -11 18 -11 21 0 49 50 33 59 -5 4 -17 19 -25 35
l-15 29 -9 -34z"/>
<path d="M2957 1821 c-3 -14 -1 -19 6 -15 7 4 -4 -9 -22 -29 -40 -42 -32 -45
35 -17 26 11 49 19 51 17 2 -3 -4 -18 -14 -35 -23 -40 -14 -47 30 -26 34 16
37 16 61 0 14 -9 26 -13 26 -9 -1 10 -141 119 -148 115 -2 -2 -8 2 -12 8 -5 8
-9 4 -13 -9z"/>
<path d="M2200 1750 c6 -11 20 -25 33 -31 18 -10 17 -6 -7 20 -34 36 -41 39
-26 11z"/>
<path d="M1956 1725 c-9 -26 -7 -32 5 -12 6 10 9 21 6 23 -2 3 -7 -2 -11 -11z"/>
<path d="M3422 1350 c0 -14 2 -19 5 -12 2 6 2 18 0 25 -3 6 -5 1 -5 -13z"/>
<path d="M3567 1293 c-16 -69 -23 -142 -12 -131 3 3 8 22 10 44 3 21 10 54 16
74 6 20 9 47 7 60 -3 17 -9 2 -21 -47z"/>
<path d="M3406 1267 c-4 -32 -5 -61 -3 -64 8 -7 20 81 15 103 -2 11 -8 -7 -12
-39z"/>
<path d="M1251 1189 c-1 -18 30 -112 35 -107 2 2 -5 31 -16 63 -10 33 -19 53
-19 44z"/>
<path d="M3387 1097 c-5 -55 -6 -101 -3 -104 8 -9 17 80 14 142 -3 55 -4 52
-11 -38z"/>
<path d="M3575 1118 c-21 -53 -31 -99 -36 -168 -3 -52 -5 -96 -4 -98 2 -2 10
18 18 43 10 27 12 43 5 39 -20 -13 -2 108 27 180 15 37 25 69 23 72 -3 2 -18
-29 -33 -68z"/>
<path d="M3392 950 c0 -14 2 -19 5 -12 2 6 2 18 0 25 -3 6 -5 1 -5 -13z"/>
<path d="M3480 867 c0 -14 5 -29 10 -32 7 -4 8 3 4 22 -9 38 -14 42 -14 10z"/>
<path d="M3491 753 c0 -31 2 -34 9 -18 12 28 12 55 0 55 -5 0 -10 -17 -9 -37z"/>
<path d="M1470 775 c0 -5 5 -17 10 -25 5 -8 10 -10 10 -5 0 6 -5 17 -10 25 -5
8 -10 11 -10 5z"/>
<path d="M3465 595 c-3 -8 -7 -22 -10 -30 -2 -8 0 -15 5 -15 10 0 30 32 30 49
0 17 -20 13 -25 -4z"/>
<path d="M3409 553 c-1 -26 -3 -93 -4 -148 -1 -56 -6 -112 -10 -125 -4 -14 -4
-21 1 -17 13 12 43 161 34 165 -4 2 -4 20 1 42 12 52 7 122 -8 128 -9 2 -13
-11 -14 -45z"/>
<path d="M1501 484 c0 -11 3 -14 6 -6 3 7 2 16 -1 19 -3 4 -6 -2 -5 -13z"/>
<path d="M1513 410 c0 -25 2 -35 4 -22 2 12 2 32 0 45 -2 12 -4 2 -4 -23z"/>
<path d="M3473 408 c-15 -20 -43 -128 -33 -128 5 0 14 19 20 43 6 23 15 54 20
70 10 29 8 34 -7 15z"/>
</g>
</svg>
